<?xml version="1.0" standalone="no"?>
<!DOCTYPE svg PUBLIC "-//W3C//DTD SVG 20010904//EN"
 "http://www.w3.org/TR/2001/REC-SVG-20010904/DTD/svg10.dtd">
<svg version="1.0" xmlns="http://www.w3.org/2000/svg"
 width="1080.000000pt" height="1080.000000pt" viewBox="0 0 1080.000000 1080.000000"
 preserveAspectRatio="xMidYMid meet">

<g transform="translate(0.000000,1080.000000) scale(0.100000,-0.100000)"
fill="#000000" stroke="none">
<path d="M5010 10290 c-276 -17 -584 -62 -668 -97 -72 -30 -231 -73 -348 -93
-102 -18 -128 -27 -179 -60 -33 -22 -98 -51 -145 -66 -167 -52 -232 -77 -264
-103 -19 -15 -53 -35 -77 -45 -135 -58 -188 -84 -228 -115 -25 -18 -81 -51
-127 -71 -45 -21 -116 -65 -158 -99 -42 -33 -99 -68 -127 -78 -52 -18 -75 -37
-118 -93 -13 -17 -45 -42 -71 -55 -26 -13 -71 -46 -101 -72 -30 -27 -70 -60
-89 -74 -86 -64 -448 -421 -510 -503 -25 -33 -67 -82 -94 -110 -26 -27 -62
-74 -78 -104 -17 -29 -47 -67 -68 -83 -22 -18 -51 -59 -74 -104 -26 -52 -47
-80 -71 -95 -26 -16 -45 -43 -78 -113 -24 -51 -62 -114 -85 -140 -51 -58 -55
-66 -88 -159 -15 -40 -45 -102 -69 -138 -56 -86 -58 -90 -95 -203 -18 -54 -43
-113 -56 -130 -43 -60 -61 -102 -95 -221 -18 -65 -47 -142 -64 -170 -26 -44
-38 -89 -80 -301 -26 -138 -63 -301 -81 -363 -55 -188 -79 -545 -71 -1045 7
-410 24 -574 80 -752 21 -67 43 -171 56 -265 27 -194 50 -280 95 -353 24 -41
42 -92 60 -170 36 -156 43 -175 90 -238 29 -38 49 -81 65 -135 30 -105 51
-153 83 -190 32 -37 80 -130 99 -193 7 -23 32 -64 55 -90 23 -25 64 -91 92
-146 31 -62 66 -115 92 -140 23 -22 55 -67 71 -100 20 -40 43 -70 72 -91 27
-20 55 -55 81 -102 27 -50 86 -121 208 -251 162 -172 257 -253 316 -268 44
-11 622 5 772 22 87 9 199 30 280 51 167 44 278 68 442 92 106 17 143 27 225
65 54 25 158 61 231 81 73 19 147 44 165 55 45 29 203 106 261 126 27 10 65
32 85 50 37 34 122 79 203 110 26 9 64 32 85 49 21 18 78 54 126 81 48 28 109
67 135 89 26 21 78 54 117 73 38 20 88 52 110 72 22 20 75 57 119 81 43 25
105 68 137 97 32 29 80 63 108 77 27 14 65 44 83 66 18 23 59 55 91 72 32 18
96 65 140 106 45 41 102 88 127 105 25 17 65 53 89 79 24 27 61 58 82 69 22
10 56 42 76 70 21 28 62 66 91 85 29 20 63 52 76 73 27 42 76 86 105 96 11 3
33 27 49 53 16 26 46 61 66 77 21 17 50 43 64 59 77 83 104 105 168 131 38 16
77 36 88 44 14 13 48 16 170 17 106 1 166 6 201 16 28 9 68 19 90 23 22 3 60
12 85 20 25 7 71 21 103 30 38 10 73 29 100 53 23 21 75 59 115 86 74 50 171
146 225 226 17 25 36 48 43 53 22 13 55 75 79 149 26 82 81 216 95 233 5 6 14
51 20 101 21 187 6 371 -37 457 -13 27 -41 99 -62 160 -44 131 -64 173 -89
186 -10 6 -33 36 -50 68 -53 99 -170 208 -280 261 -41 20 -81 46 -89 59 -23
35 -54 48 -213 86 -164 40 -226 49 -315 49 -144 -1 -440 -57 -519 -98 -88 -46
-266 -177 -292 -216 -16 -22 -52 -57 -82 -77 -51 -34 -55 -41 -97 -146 -30
-76 -54 -119 -75 -138 -17 -15 -37 -42 -45 -60 -25 -61 -48 -240 -50 -397 -2
-211 -13 -250 -84 -322 -31 -31 -99 -102 -151 -159 -52 -56 -115 -120 -139
-143 -24 -22 -60 -58 -80 -79 -20 -21 -56 -57 -80 -80 -25 -23 -74 -72 -110
-108 -36 -36 -91 -85 -121 -109 -30 -24 -82 -69 -115 -100 -33 -31 -80 -70
-105 -87 -25 -17 -60 -49 -77 -71 -19 -23 -56 -52 -88 -68 -31 -15 -73 -44
-93 -66 -20 -22 -63 -53 -95 -71 -33 -17 -71 -44 -85 -60 -32 -34 -120 -95
-182 -127 -25 -12 -68 -44 -95 -70 -28 -26 -68 -53 -90 -60 -62 -20 -116 -50
-165 -91 -44 -37 -142 -89 -168 -89 -20 0 -74 -30 -110 -61 -42 -37 -112 -72
-187 -94 -64 -18 -150 -58 -160 -75 -13 -21 -68 -41 -217 -81 -84 -22 -182
-56 -218 -74 -115 -58 -362 -95 -635 -95 -264 0 -451 33 -535 95 -19 14 -70
39 -113 56 -102 39 -122 53 -149 101 -12 22 -44 55 -70 73 -34 25 -56 52 -79
97 -17 35 -46 81 -64 103 -45 56 -71 111 -96 200 -25 91 -35 116 -73 175 -46
70 -63 124 -96 306 -23 127 -39 188 -65 244 -40 87 -55 172 -82 465 -43 468
-3 1272 73 1472 14 37 32 85 40 106 8 20 26 101 40 180 27 145 63 246 100 279
13 11 46 20 92 24 69 7 75 5 144 -30 92 -46 196 -60 326 -45 91 12 121 23 168
62 16 14 74 48 129 77 86 45 104 59 127 98 27 46 90 102 115 102 7 0 25 24 39
52 15 29 54 82 88 118 66 70 177 199 266 310 78 97 143 170 235 265 44 45 91
97 104 115 14 18 38 41 55 51 17 10 47 42 66 71 19 28 61 72 94 97 32 24 68
60 79 78 11 19 46 52 78 74 33 22 71 58 86 80 14 21 42 49 62 61 20 12 68 51
106 88 39 37 102 84 140 105 39 21 90 57 115 81 25 24 73 57 107 73 34 17 79
46 100 65 42 37 106 71 202 106 35 13 84 41 108 62 32 27 67 44 131 64 151 45
206 66 251 97 64 44 117 61 296 97 93 18 188 44 228 61 87 39 189 64 307 78
52 6 214 25 360 42 146 16 294 36 330 44 190 41 612 44 810 6 52 -11 147 -26
210 -36 63 -9 162 -25 220 -36 131 -24 257 -25 288 -3 12 8 22 26 22 38 0 19
-10 28 -47 44 -27 11 -59 23 -73 27 -48 14 -118 55 -163 94 -29 24 -71 47
-114 61 -37 13 -96 40 -130 60 -34 21 -91 47 -125 59 -147 52 -275 104 -300
122 -37 26 -158 66 -243 79 -117 18 -194 39 -265 70 -80 35 -277 70 -535 96
-199 19 -828 27 -1055 14z m2412 -4161 c46 -9 104 -33 297 -120 38 -17 107
-76 189 -159 13 -14 38 -52 54 -85 17 -33 39 -66 49 -73 10 -7 30 -32 43 -55
42 -72 59 -293 35 -463 -12 -87 -25 -118 -73 -172 -18 -20 -39 -53 -46 -72
-17 -45 -49 -91 -75 -109 -11 -8 -47 -40 -80 -71 -43 -41 -95 -74 -183 -118
-157 -79 -232 -95 -368 -83 -96 9 -103 12 -253 88 -126 64 -160 86 -190 123
-20 25 -64 72 -98 105 -33 33 -66 69 -71 80 -27 55 -52 154 -57 233 -4 48 -16
124 -26 169 -18 76 -18 85 -4 113 9 17 27 69 41 116 37 131 72 188 181 300 97
100 147 135 238 164 22 7 57 24 78 37 54 34 84 45 152 53 91 11 109 11 167 -1z"/>
<path d="M8145 9420 c-4 -6 6 -10 22 -10 22 0 25 2 13 10 -19 12 -27 12 -35 0z"/>
<path d="M8232 8933 c-216 -3 -234 -5 -252 -23 -11 -11 -20 -24 -20 -30 0 -5
-7 -10 -15 -10 -8 0 -15 -5 -15 -12 0 -7 -21 -32 -46 -55 l-46 -44 -35 22
c-34 21 -42 22 -232 16 -198 -7 -287 -21 -318 -53 -66 -66 -112 -82 -283 -99
-175 -18 -228 -32 -245 -65 -25 -48 -50 -61 -162 -81 -168 -31 -176 -33 -183
-49 -27 -60 -38 -76 -60 -86 -42 -20 -102 -37 -170 -48 l-64 -11 -9 -45 c-10
-53 -24 -66 -80 -75 -23 -4 -81 -16 -128 -27 l-87 -21 -6 -47 c-4 -26 -12 -53
-20 -59 -7 -6 -40 -16 -72 -23 -71 -13 -91 -29 -105 -80 -6 -25 -18 -42 -32
-47 -26 -9 -138 -49 -184 -64 -24 -9 -33 -19 -37 -42 -7 -37 -48 -83 -81 -90
-14 -3 -37 -8 -52 -11 -49 -10 -60 -47 -32 -101 7 -13 21 -25 31 -29 10 -3 16
-10 13 -15 -4 -5 1 -9 9 -9 23 0 20 -17 -9 -45 -28 -29 -69 -32 -87 -7 -18 25
-34 34 -75 39 -28 4 -40 0 -64 -23 -16 -15 -29 -35 -29 -44 0 -20 -41 -60 -61
-60 -8 0 -23 -6 -34 -13 -11 -7 -39 -19 -63 -27 -23 -7 -47 -19 -53 -27 -6 -7
-20 -13 -30 -13 -12 0 -19 -7 -19 -19 0 -39 -43 -73 -106 -86 l-59 -12 -8 -49
c-11 -65 -27 -80 -93 -89 -59 -7 -67 -15 -78 -78 -9 -51 -35 -74 -90 -82 -44
-7 -46 -9 -62 -59 -22 -66 -27 -72 -82 -92 -56 -20 -69 -34 -77 -82 -9 -54
-28 -73 -86 -86 -48 -11 -55 -16 -78 -60 -14 -26 -35 -52 -46 -59 -33 -18
-108 -27 -335 -38 -118 -6 -255 -14 -305 -17 l-89 -7 -11 -35 c-15 -51 -20
-56 -72 -70 -79 -22 -135 -56 -183 -111 -25 -28 -64 -71 -87 -95 -24 -24 -43
-48 -43 -53 0 -6 -13 -17 -29 -25 -29 -15 -61 -83 -61 -130 0 -57 -21 -96 -64
-121 -25 -14 -48 -38 -54 -53 -13 -33 -22 -585 -11 -628 7 -25 21 -36 78 -64
67 -32 87 -54 71 -79 -4 -7 -8 -41 -9 -76 -3 -83 14 -111 72 -120 52 -9 64
-18 72 -57 9 -39 32 -66 71 -82 29 -13 64 -65 64 -98 1 -26 51 -50 122 -59 86
-11 115 -28 136 -80 25 -64 44 -67 457 -61 66 1 164 5 218 8 98 7 98 7 111 38
7 17 24 41 37 52 24 22 161 71 212 76 24 2 32 10 42 41 17 51 41 76 95 99 52
22 60 32 60 73 0 17 9 49 21 70 12 22 28 54 36 70 9 17 33 48 53 70 30 32 39
51 45 93 4 29 13 76 21 105 8 28 14 66 14 83 0 17 11 47 24 66 21 32 22 39 11
64 -18 41 -33 121 -34 179 -2 66 -9 85 -30 85 -22 0 -30 32 -36 149 -2 46 -9
89 -15 95 -5 5 -10 17 -10 25 0 8 -7 23 -17 33 -9 10 -11 18 -5 18 5 0 8 9 5
20 -3 12 1 28 9 38 7 9 20 30 28 46 29 58 70 41 70 -29 0 -24 5 -45 10 -47 7
-2 5 -16 -5 -40 -8 -21 -15 -54 -15 -73 0 -20 -5 -46 -11 -57 -6 -12 -7 -18
-1 -14 5 3 13 -10 16 -28 4 -19 12 -36 19 -39 9 -3 9 -8 -2 -21 -13 -15 -12
-16 13 -7 21 9 26 8 26 -5 0 -8 4 -12 10 -9 6 3 10 -1 10 -9 0 -43 43 19 55
79 7 36 68 103 118 130 21 11 37 25 37 31 0 6 7 17 15 24 7 6 28 36 44 66 17
29 43 60 58 68 31 16 70 56 97 99 9 15 29 33 44 39 34 15 102 78 102 95 0 26
33 63 74 83 74 36 103 63 121 113 12 33 22 47 36 47 10 0 19 4 19 9 0 13 95
51 129 51 28 0 30 3 41 54 6 30 17 59 24 66 8 6 39 15 70 20 31 5 60 12 65 15
6 3 17 29 25 58 17 57 41 77 94 77 43 0 88 33 96 71 8 39 42 79 68 79 11 0 29
5 41 12 12 6 49 16 82 22 l59 11 13 46 c18 61 36 76 112 88 75 12 81 17 86 62
8 85 24 95 183 106 51 3 95 11 99 16 3 5 6 23 5 39 -1 34 31 58 91 69 23 3 76
12 117 19 127 21 137 28 143 98 2 33 36 47 142 61 149 19 219 33 240 47 11 8
16 14 12 14 -4 0 0 12 10 26 24 37 66 52 180 65 54 6 163 19 243 30 134 19
147 23 175 50 30 28 34 29 130 29 98 0 158 -13 208 -44 21 -13 106 -25 337
-46 58 -5 136 -20 175 -32 58 -19 72 -28 83 -53 7 -16 16 -36 21 -44 4 -8 36
-24 72 -35 54 -18 67 -26 81 -56 9 -19 17 -44 18 -56 0 -32 30 -51 80 -53 24
0 48 -5 54 -11 5 -5 8 -35 7 -67 -1 -48 3 -65 25 -100 15 -23 38 -47 51 -54
44 -24 89 -112 98 -196 8 -73 42 -161 64 -168 27 -8 67 -56 80 -94 6 -18 14
-117 17 -220 6 -190 18 -251 49 -251 8 0 15 -4 15 -10 0 -5 7 -10 15 -10 8 0
15 -6 15 -14 0 -7 10 -26 22 -41 21 -27 22 -41 30 -334 9 -339 2 -958 -13
-1178 -8 -122 -26 -243 -45 -305 -3 -10 -11 -18 -17 -18 -7 0 -25 -11 -41 -24
l-30 -23 2 -125 c3 -161 -18 -303 -59 -399 -48 -113 -84 -139 -195 -139 -107
0 -270 45 -343 95 -37 26 -61 34 -118 40 -65 6 -72 5 -92 -16 -11 -13 -21 -28
-21 -34 0 -7 -17 -19 -37 -27 -207 -86 -213 -89 -213 -127 0 -46 -19 -89 -43
-95 -12 -3 -45 -6 -74 -6 -56 0 -55 1 -68 -70 -8 -47 -26 -90 -36 -90 -4 0
-11 -10 -15 -22 -10 -35 -35 -58 -60 -58 -16 0 -29 -10 -39 -30 -8 -16 -33
-39 -54 -49 -21 -11 -45 -31 -55 -45 -9 -14 -23 -26 -30 -26 -7 0 -16 -14 -20
-31 -3 -17 -15 -43 -26 -59 -11 -15 -20 -37 -20 -47 0 -30 -27 -60 -60 -66
-42 -9 -80 -52 -80 -92 0 -48 -31 -81 -83 -89 -44 -7 -67 -31 -67 -72 0 -39
-35 -75 -87 -90 -53 -15 -56 -19 -68 -84 -4 -19 -8 -42 -11 -51 -4 -15 -42
-31 -105 -43 -21 -5 -27 -13 -35 -52 -10 -55 -39 -80 -97 -87 -45 -6 -77 -31
-77 -61 0 -35 -36 -84 -67 -90 -50 -11 -91 -42 -98 -75 -8 -38 -30 -61 -57
-61 -12 0 -54 -16 -94 -35 -40 -19 -77 -35 -82 -35 -9 0 -14 -10 -45 -82 -17
-39 -22 -41 -105 -53 -60 -8 -82 -24 -88 -67 -4 -20 -14 -44 -23 -52 -16 -15
-166 -46 -221 -46 -31 0 -55 -23 -65 -62 -13 -51 -26 -57 -214 -92 -81 -16
-92 -22 -94 -60 -1 -14 -5 -26 -9 -26 -4 0 -5 -6 -2 -14 13 -33 -95 -60 -294
-72 l-114 -7 -45 -38 c-24 -22 -58 -46 -75 -55 -85 -44 -108 -48 -358 -54
-135 -4 -252 -10 -260 -14 -8 -3 -25 -24 -38 -46 -14 -26 -30 -40 -42 -40 -11
0 -28 -4 -38 -9 -9 -6 -201 -20 -426 -31 -411 -22 -712 -22 -846 1 -94 15
-237 28 -259 22 -26 -7 -37 -41 -20 -59 8 -7 46 -20 84 -28 178 -39 234 -63
235 -102 0 -14 102 -39 213 -54 60 -8 93 -19 150 -50 39 -23 77 -48 83 -55 13
-18 186 -51 309 -60 216 -16 272 -31 331 -93 l32 -33 368 -10 c345 -10 930 -6
1089 7 49 4 75 11 87 24 9 10 14 21 11 24 -4 3 -1 6 6 6 6 0 21 9 33 19 13 13
41 22 77 26 31 3 76 12 101 20 73 23 110 28 215 30 137 3 235 15 235 30 0 6
15 28 33 49 28 32 43 39 122 57 174 40 175 40 190 70 19 37 55 60 144 94 40
16 79 38 86 50 13 20 14 59 2 71 -12 12 -8 24 8 24 9 0 12 6 9 15 -4 8 -1 15
5 15 6 0 11 7 11 16 0 9 6 14 13 11 6 -2 11 -12 11 -21 -2 -18 4 -20 26 -7 8
6 19 7 24 3 6 -3 63 -8 129 -10 139 -5 173 5 193 55 22 53 134 113 210 113 38
0 54 21 54 69 0 43 28 67 86 75 65 8 94 29 94 66 0 32 39 70 73 70 12 0 45 14
74 32 39 23 53 38 53 55 0 32 36 88 65 101 23 11 51 16 125 26 26 3 50 36 50
71 0 35 27 62 79 81 42 15 53 24 66 56 8 21 15 44 15 50 0 23 73 116 125 162
43 37 55 55 62 89 8 39 12 43 58 58 56 19 95 58 95 95 0 51 27 94 73 114 42
19 44 21 55 81 16 88 62 151 117 160 21 4 38 39 59 125 22 84 54 124 102 124
20 0 21 6 26 121 6 142 15 160 99 201 l56 27 13 84 c7 47 10 118 8 158 -5 70
-4 76 24 115 21 29 41 45 69 53 22 7 42 17 44 24 2 7 9 69 14 138 6 69 15 148
20 175 6 27 15 83 21 124 12 79 45 160 66 160 27 0 38 50 50 215 14 196 17
976 5 1417 -9 325 -10 332 -71 363 -16 8 -37 30 -46 48 -20 38 -43 209 -44
322 -1 134 -6 149 -53 167 -60 21 -87 76 -87 177 0 42 -9 107 -19 146 -17 65
-21 70 -58 86 -42 18 -57 43 -68 114 -4 22 -13 60 -20 85 -7 25 -16 63 -20 85
-7 43 -18 55 -51 55 -30 0 -52 29 -60 80 -10 66 -49 134 -87 151 -45 20 -94
96 -102 161 -10 85 -19 96 -71 88 -51 -8 -45 -4 -67 -52 -24 -52 -44 -70 -65
-59 -9 5 -25 12 -35 15 -14 5 -17 15 -16 51 3 43 5 47 46 67 43 21 46 27 56
91 5 29 -17 56 -82 105 -17 13 -31 32 -31 41 0 10 -8 29 -18 42 -10 13 -31 45
-46 71 -18 32 -45 60 -81 82 -31 21 -63 51 -76 74 -13 22 -39 50 -58 63 -42
29 -166 150 -173 169 -5 16 -108 19 -486 13z m426 -145 c5 -18 5 -34 0 -36 -4
-2 -8 -12 -8 -23 0 -10 -6 -19 -14 -19 -8 0 -16 -10 -18 -22 -2 -15 -11 -24
-25 -26 -26 -4 -29 -12 -11 -30 14 -14 -3 -74 -31 -106 -22 -26 -84 -52 -89
-37 -2 6 -10 11 -18 11 -20 0 -114 91 -114 111 0 9 7 22 15 29 8 7 13 16 10
20 -5 8 38 30 59 30 8 0 19 6 25 14 6 8 31 17 56 20 24 4 49 14 55 21 7 8 10
15 6 15 -8 0 26 32 50 47 31 19 43 15 52 -19z m-616 -144 l46 -15 -19 -39
c-10 -21 -23 -42 -29 -45 -5 -3 -10 -13 -10 -21 0 -8 -8 -24 -19 -35 -18 -20
-18 -20 -33 3 -23 35 -31 106 -16 139 15 34 19 34 80 13z m-462 -33 c0 -13 -9
-21 -30 -26 -36 -8 -50 0 -50 26 0 16 7 19 40 19 33 0 40 -3 40 -19z m1221
-65 c0 -17 3 -25 6 -17 6 15 43 -51 43 -75 0 -22 -40 -44 -61 -33 -11 5 -28
14 -39 19 -11 6 -31 10 -45 10 -29 0 -31 7 -8 32 11 12 12 18 4 18 -7 0 0 15
17 34 17 19 33 44 37 56 6 20 8 21 26 4 10 -9 19 -31 20 -48z m-1672 -64 c38
-28 36 -39 -11 -68 -32 -21 -59 -29 -105 -32 -42 -3 -63 -1 -63 7 0 6 -14 11
-31 11 -17 0 -28 4 -24 10 3 6 1 10 -4 10 -14 0 -14 37 -1 45 6 3 40 15 78 25
76 21 125 19 161 -8z m-967 -332 c26 0 11 -27 -20 -35 -19 -5 -30 -2 -39 11
-16 22 -6 37 21 30 11 -3 29 -6 38 -6z m1705 -16 c3 -8 -9 -12 -31 -12 -35 0
-44 7 -29 22 11 10 56 3 60 -10z m-66 -76 c4 -15 4 -30 1 -33 -4 -3 0 -10 8
-15 12 -7 12 -12 -3 -28 -19 -20 -131 -57 -146 -48 -5 3 -35 -1 -67 -10 -32
-8 -79 -14 -104 -12 -37 2 -45 7 -45 22 0 11 -6 21 -13 24 -25 8 -11 40 37 85
l48 45 138 -1 139 -2 7 -27z m-701 -33 c7 -8 20 -15 29 -15 20 0 54 -37 46
-50 -4 -6 -15 -10 -26 -10 -10 0 -19 -4 -19 -10 0 -17 -92 -12 -111 6 -15 13
-16 20 -6 42 6 15 15 33 20 40 13 17 52 15 67 -3z m1853 3 c12 -6 49 -14 82
-17 56 -6 60 -8 60 -31 0 -22 -5 -25 -37 -28 -21 -2 -38 -8 -38 -14 0 -9 -21
-8 -115 7 -112 17 -120 20 -120 40 0 17 10 22 62 30 34 5 65 13 69 18 10 9 11
9 37 -5z m-2955 -28 c22 -21 29 -64 14 -88 -5 -7 -24 -15 -44 -18 -31 -5 -39
-2 -71 31 -21 21 -37 41 -37 45 0 15 27 39 50 43 51 9 67 6 88 -13z m460 -17
c-3 -31 -34 -44 -44 -19 -9 24 3 46 26 46 17 0 21 -5 18 -27z m-416 -93 c2 -6
33 -12 71 -14 73 -3 107 -22 107 -59 0 -29 -29 -57 -57 -57 -13 0 -33 -5 -43
-10 -13 -7 -21 -7 -25 0 -3 5 -15 10 -26 10 -22 0 -47 48 -56 107 -4 25 -2 33
10 33 8 0 17 -5 19 -10z m1325 -56 c-3 -3 -12 -4 -19 -1 -8 3 -5 6 6 6 11 1
17 -2 13 -5z m-725 -131 c44 -43 45 -49 18 -108 -19 -42 -22 -44 -62 -43 -34
0 -50 6 -75 31 -20 19 -33 41 -33 56 0 31 65 101 94 101 11 0 37 -17 58 -37z
m-342 -117 c0 -9 12 -16 27 -18 18 -2 29 -10 31 -22 3 -11 11 -27 20 -35 14
-15 14 -16 -2 -19 -9 -2 -15 -9 -13 -15 5 -15 -38 -37 -73 -37 -57 0 -75 51
-45 124 15 36 55 52 55 22z m3156 -7 c10 -12 29 -25 40 -29 26 -10 30 -59 5
-62 -49 -4 -68 -7 -89 -14 -22 -6 -23 -5 -21 44 2 35 7 53 18 57 13 5 14 7 1
15 -12 8 -11 10 6 10 11 0 29 -10 40 -21z m-3441 -221 c25 -7 45 -15 45 -18 0
-3 -16 -21 -35 -40 -25 -24 -35 -43 -35 -64 0 -45 -35 -76 -86 -76 -24 0 -46
-4 -49 -10 -8 -13 -68 -13 -80 -1 -6 5 -26 11 -45 13 -39 3 -48 21 -13 26 12
2 27 10 33 18 7 8 30 14 52 14 46 0 80 27 77 61 -4 45 1 58 29 73 33 19 50 19
107 4z m-535 -18 c0 -5 -4 -10 -10 -10 -5 0 -10 5 -10 10 0 6 5 10 10 10 6 0
10 -4 10 -10z m-312 -143 c6 -5 12 -15 12 -21 0 -13 -55 -36 -86 -36 -11 0
-33 -13 -49 -30 l-29 -30 -23 22 c-29 27 -29 65 -1 95 21 22 27 23 93 17 38
-4 76 -11 83 -17z m4581 -115 c21 -40 9 -102 -21 -102 -4 0 -14 12 -21 28 -15
28 -12 102 4 102 5 0 10 19 10 43 l1 42 8 -46 c4 -26 13 -56 19 -67z m-4243
-43 c19 -18 21 -25 11 -48 -17 -41 -49 -73 -61 -61 -5 5 -22 10 -37 10 -15 0
-34 6 -41 14 -8 8 -23 15 -34 18 -25 4 -30 41 -8 59 14 12 69 24 128 28 11 0
30 -8 42 -20z m-632 -200 c14 -17 26 -36 26 -42 0 -6 16 -28 37 -49 l36 -37
-35 -35 c-31 -31 -43 -36 -81 -36 -30 0 -53 7 -71 21 -22 18 -26 28 -26 76 0
40 5 62 20 80 11 14 20 22 20 17 0 -5 7 2 16 14 20 29 27 28 58 -9z m-349
-114 c19 0 20 -7 23 -107 2 -78 6 -109 17 -118 8 -7 15 -25 15 -39 0 -16 10
-37 25 -51 19 -18 22 -26 13 -37 -6 -8 -17 -12 -24 -9 -14 5 -67 -50 -74 -79
-3 -11 -16 -21 -28 -23 -14 -2 -22 -10 -22 -23 0 -23 -44 -65 -78 -74 -24 -6
-70 14 -91 39 -11 13 -9 25 15 73 34 70 52 93 72 93 23 0 129 117 135 149 8
37 -3 170 -14 177 -5 3 -9 -5 -9 -17 0 -18 -2 -19 -15 -9 -8 7 -15 20 -15 29
0 20 22 44 29 33 3 -4 15 -8 26 -7z m-93 -17 c-7 -7 -12 -8 -12 -2 0 14 12 26
19 19 2 -3 -1 -11 -7 -17z m756 16 c16 -5 22 -13 20 -28 -2 -16 -11 -22 -40
-24 -32 -3 -38 0 -38 15 0 18 18 43 30 43 3 0 15 -3 28 -6z m-927 -155 c22
-42 -14 -109 -58 -109 -13 0 -26 8 -30 18 -4 9 -12 22 -18 27 -29 25 -24 44
18 74 45 31 67 29 88 -10z m623 -163 l39 -17 -8 -67 c-4 -37 -9 -83 -11 -102
-1 -19 -7 -36 -13 -38 -6 -2 -18 -17 -27 -33 -12 -25 -18 -28 -35 -19 -11 6
-17 15 -14 20 3 4 -2 15 -10 23 -10 11 -15 37 -15 86 0 38 -4 73 -10 76 -5 3
-10 19 -10 36 0 22 5 29 19 29 10 0 24 7 31 15 7 9 16 14 19 12 3 -2 23 -11
45 -21z m-1260 -157 c28 -24 50 -33 103 -40 140 -20 172 -28 212 -54 23 -14
46 -36 52 -48 16 -34 51 -55 102 -61 79 -9 91 -16 124 -66 19 -29 41 -50 54
-52 31 -4 57 -60 63 -133 15 -191 43 -385 58 -402 21 -24 68 -112 68 -129 0
-7 -20 -32 -44 -54 -44 -41 -44 -43 -51 -124 -9 -104 -49 -202 -92 -224 -46
-24 -63 -44 -98 -112 -47 -91 -110 -151 -172 -160 -72 -12 -75 -13 -103 -38
-14 -12 -45 -32 -70 -44 -42 -20 -59 -22 -230 -21 -154 0 -200 4 -274 22 -115
28 -176 55 -183 81 -6 22 -50 50 -80 50 -45 0 -64 28 -87 131 -5 22 -13 27
-68 37 -34 6 -68 18 -75 25 -8 8 -17 40 -20 73 -4 50 -10 64 -38 90 -22 21
-36 45 -40 70 -4 22 -15 56 -26 76 -43 81 -47 114 -33 264 22 227 18 217 116
285 20 15 23 26 26 99 3 51 0 86 -7 93 -18 18 -13 24 22 20 116 -12 147 -1
147 56 0 45 11 67 40 85 16 9 46 41 66 71 36 55 36 55 87 55 29 0 93 9 142 19
50 10 113 22 141 26 39 5 59 14 80 36 35 36 45 36 88 -2z m1096 -174 c24 -26
22 -37 -8 -40 -9 -1 -24 -5 -32 -8 -39 -15 -80 -11 -80 9 0 8 8 26 18 39 23
33 71 33 102 0z m38 6 c3 -8 -1 -12 -9 -9 -7 2 -15 10 -17 17 -3 8 1 12 9 9 7
-2 15 -10 17 -17z m5303 -291 c13 0 10 -58 -5 -100 -11 -29 -14 -32 -19 -15
-16 57 -17 80 -5 114 8 24 13 30 16 19 2 -10 8 -18 13 -18z m-9 -630 l-7 -135
-7 100 c-4 55 -4 150 0 210 l7 110 7 -75 c4 -41 4 -136 0 -210z m-124 -927 c2
-82 0 -95 -18 -113 -11 -11 -20 -25 -20 -31 0 -6 -7 -3 -16 6 -9 9 -27 23 -40
31 -21 14 -21 18 -9 47 7 18 16 55 20 82 8 61 20 77 54 73 26 -3 26 -4 29 -95z
m-289 -665 c11 -10 14 -10 18 0 3 6 15 12 28 12 34 0 78 -59 69 -94 -3 -14 -9
-25 -13 -24 -3 1 -14 -2 -24 -7 -9 -4 -23 -3 -30 3 -11 9 -129 26 -169 24 -28
-1 -21 29 14 65 34 35 82 44 107 21z m-617 -21 c4 -7 54 -13 144 -15 131 -4
139 -6 157 -28 10 -13 28 -24 39 -24 21 0 21 0 2 -21 -28 -32 -66 -44 -76 -24
-5 8 -18 15 -28 15 -10 0 -21 4 -24 9 -9 15 -142 21 -220 11 -63 -9 -80 -8
-106 5 -37 19 -38 42 -2 72 22 19 35 22 67 18 22 -3 43 -11 47 -18z m423 -120
c4 -13 5 -43 3 -68 -3 -41 -5 -44 -35 -47 -35 -3 -73 25 -73 55 0 23 59 83 82
83 10 0 20 -10 23 -23z m157 -191 c3 2 18 -2 34 -11 16 -8 34 -15 40 -15 7 0
14 -9 17 -20 3 -10 2 -19 -2 -18 -3 1 -16 -3 -28 -10 -13 -7 -23 -10 -23 -6 0
3 -7 1 -16 -7 -17 -14 -56 -20 -64 -10 -3 4 -17 14 -32 24 -38 24 -36 54 5 71
19 8 39 10 48 5 9 -5 19 -6 21 -3z m-315 -22 c7 -19 -37 -68 -50 -55 -16 16 2
71 24 71 11 0 22 -7 26 -16z m-167 -141 c0 -9 7 -24 16 -34 20 -22 10 -59 -16
-59 -10 0 -20 -5 -22 -12 -2 -6 -10 -8 -16 -4 -13 8 -16 66 -6 104 7 26 44 31
44 5z m302 -77 c-9 -17 -18 -33 -20 -35 -5 -9 -31 34 -32 51 0 10 8 27 18 38
l17 21 17 -22 c17 -20 17 -23 0 -53z m-1068 26 c3 -5 6 -26 7 -48 1 -21 6 -44
11 -51 16 -21 5 -67 -17 -72 -11 -2 -23 -8 -26 -13 -4 -7 -20 -6 -45 3 -22 7
-43 13 -49 14 -22 1 -14 34 12 55 15 12 28 27 29 33 3 34 5 38 16 31 7 -4 8
-3 4 4 -9 16 15 52 36 52 9 0 19 -4 22 -8z m983 -139 c3 -7 -2 -22 -12 -33
-13 -14 -16 -32 -13 -74 1 -31 1 -56 -2 -56 -3 0 -13 -14 -22 -30 -19 -33 -31
-34 -60 -7 -15 14 -18 33 -18 117 0 60 4 100 10 100 6 0 10 -8 10 -17 0 -13 2
-15 8 -5 5 7 16 10 25 6 11 -4 17 -1 17 9 0 18 49 10 57 -10z m-377 -23 c0 -5
-9 -10 -20 -10 -11 0 -20 5 -20 10 0 6 9 10 20 10 11 0 20 -4 20 -10z m-631
-327 c-15 -18 -34 -1 -25 22 5 14 9 15 21 5 12 -10 13 -16 4 -27z m775 -79
c21 -8 21 -58 0 -79 -16 -16 -84 -18 -84 -3 0 4 -15 8 -33 8 -19 0 -37 3 -40
7 -13 12 36 53 64 53 15 0 31 5 34 10 7 11 35 13 59 4z m-933 -185 l1 -126 51
-12 c29 -6 80 -13 115 -16 63 -4 90 -14 110 -37 9 -11 2 -22 -28 -52 -22 -21
-40 -47 -40 -57 0 -9 -11 -26 -25 -37 -17 -13 -25 -30 -25 -50 0 -16 -7 -35
-15 -42 -8 -7 -15 -21 -15 -31 0 -11 -6 -19 -14 -19 -8 0 -24 -9 -37 -20 l-24
-19 23 -1 c18 0 22 -6 22 -31 0 -25 3 -29 19 -24 16 5 18 2 14 -15 -3 -11 -1
-20 5 -20 15 0 21 -48 8 -66 -7 -8 -31 -17 -58 -19 -25 -2 -60 -11 -77 -19
-39 -21 -63 -20 -59 0 3 16 -10 27 -46 38 -18 6 -18 7 0 27 21 23 20 55 -2 80
-8 8 -14 30 -14 47 0 25 -4 32 -19 32 -10 0 -24 6 -30 14 -7 8 -29 14 -51 14
-21 0 -43 2 -48 6 -5 3 -13 -4 -16 -17 -6 -20 -7 -20 -17 -4 -5 9 -19 17 -30
17 -11 0 -22 8 -25 18 -3 9 -10 25 -15 34 -15 28 -10 74 9 89 34 28 57 36 78
28 13 -4 32 -2 49 7 35 18 49 18 65 0 6 -8 26 -16 43 -18 24 -2 33 -8 35 -25
2 -13 8 -23 13 -23 5 0 9 -8 9 -19 0 -32 24 -42 92 -39 57 3 63 5 66 26 2 15
-6 32 -22 47 -14 13 -26 33 -26 43 0 11 -7 22 -15 26 -8 3 -15 14 -15 25 0 11
-5 23 -10 26 -6 4 -9 13 -8 22 3 15 -11 27 -44 37 -10 3 -18 13 -18 22 0 24
-29 54 -52 54 -10 0 -21 7 -24 15 -4 11 -21 15 -56 15 -64 0 -61 24 3 28 24 2
48 7 54 13 5 5 15 9 23 9 25 0 82 69 82 99 0 15 3 31 7 35 17 16 23 -18 24
-135z m486 -346 c9 -12 8 -22 -5 -49 -15 -31 -42 -47 -42 -24 0 6 -6 10 -14
10 -8 0 -17 12 -20 26 -13 51 47 79 81 37z m-1573 -159 c11 -4 16 -19 16 -45
0 -26 5 -42 15 -45 8 -4 15 -17 15 -30 0 -19 -5 -24 -24 -24 -13 0 -26 -7 -30
-15 -3 -8 -14 -15 -24 -15 -10 0 -27 -9 -37 -20 -9 -10 -20 -19 -24 -18 -3 1
-24 -7 -45 -16 -33 -15 -43 -16 -63 -5 -18 10 -26 10 -35 1 -17 -17 -38 4 -38
39 0 22 -4 27 -17 22 -11 -4 -14 -3 -9 5 4 7 16 12 26 12 10 0 33 12 50 27 18
14 42 28 54 29 11 1 23 3 26 5 3 1 14 2 25 3 13 1 23 12 30 32 19 57 46 75 89
58z m-750 -495 c34 -27 33 -37 -4 -31 -22 3 -30 0 -30 -11 0 -11 -11 -14 -42
-13 -24 1 -49 5 -56 10 -8 5 -18 4 -25 -3 -6 -6 -19 -11 -28 -11 -9 0 -22 -7
-29 -15 -20 -24 -31 -18 -24 12 8 28 40 66 65 75 8 3 44 6 80 6 53 1 72 -3 93
-19z m1506 11 c0 -5 -9 -10 -21 -10 -11 0 -17 5 -14 10 3 6 13 10 21 10 8 0
14 -4 14 -10z m-73 -6 c-3 -3 -12 -4 -19 -1 -8 3 -5 6 6 6 11 1 17 -2 13 -5z
m-449 -76 c-7 -20 -74 -22 -81 -4 -5 13 2 16 39 16 32 0 44 -4 42 -12z m-879
-31 c6 -8 7 -17 3 -21 -4 -4 -7 -22 -7 -38 0 -38 -16 -45 -34 -16 -11 18 -11
23 0 32 8 6 13 21 11 34 -4 25 10 29 27 9z m-313 -34 c19 -25 17 -33 -5 -33
-23 0 -35 15 -27 35 7 20 16 19 32 -2z m1299 7 c3 -5 -1 -10 -9 -10 -8 0 -18
5 -21 10 -3 6 1 10 9 10 8 0 18 -4 21 -10z m-1118 -142 c13 -12 23 -27 23 -34
0 -21 52 -43 127 -54 96 -14 132 -24 180 -49 64 -34 69 -45 39 -76 -14 -14
-26 -29 -26 -33 0 -4 -15 -16 -34 -26 -29 -15 -44 -17 -112 -9 -86 10 -192 3
-294 -18 -126 -27 -310 -10 -310 28 0 7 -9 13 -20 13 -27 0 -38 26 -30 71 l7
39 -63 0 c-34 0 -65 4 -68 9 -3 4 -40 11 -83 13 -75 6 -163 37 -163 58 0 5
-12 10 -27 12 -28 3 -28 3 9 22 21 10 36 22 33 26 -12 20 160 26 259 10 48 -8
66 -16 94 -45 29 -29 34 -41 30 -70 -5 -41 6 -44 74 -21 24 8 68 18 98 21 86
10 149 45 150 83 0 21 34 50 59 51 14 1 35 -9 48 -21z m752 13 c9 -6 11 -18 6
-39 -6 -27 -10 -30 -49 -34 -76 -6 -147 3 -153 19 -3 7 5 25 17 39 21 21 32
24 94 24 39 0 77 -4 85 -9z m-2031 -170 c9 -5 25 -12 35 -15 47 -15 -13 -50
-86 -51 -49 0 -52 2 -52 25 0 22 5 25 38 28 20 2 37 7 37 13 0 11 6 11 28 0z
m-440 -41 c11 -18 10 -20 -11 -20 -13 0 -27 -4 -32 -8 -6 -5 -26 -3 -45 4 -19
7 -33 13 -30 14 3 1 13 3 24 5 10 2 23 8 29 14 18 18 51 13 65 -9z m992 -150
c0 -5 -15 -10 -32 -10 -26 0 -30 -3 -18 -11 11 -7 -1 -8 -40 -5 -30 3 -85 8
-123 12 -37 3 -65 10 -62 15 8 13 275 12 275 -1z"/>
<path d="M8235 2880 c-3 -5 -1 -10 4 -10 6 0 11 5 11 10 0 6 -2 10 -4 10 -3 0
-8 -4 -11 -10z"/>
<path d="M8200 1825 c-13 -16 -7 -45 10 -45 5 0 10 14 10 30 0 34 -3 36 -20
15z"/>
<path d="M2944 1126 c-17 -13 -17 -14 2 -20 51 -16 181 -33 201 -25 32 12 37
28 11 38 -44 16 -194 21 -214 7z"/>
</g>
</svg>
